<svg width="22" height="22" viewBox="0 0 22 22" fill="none" xmlns="http://www.w3.org/2000/svg">
<path d="M0.699219 11C0.699219 13.0767 1.31503 15.1068 2.46879 16.8335C3.62254 18.5602 5.26242 19.906 7.18104 20.7007C9.09967 21.4955 11.2109 21.7034 13.2477 21.2982C15.2845 20.8931 17.1554 19.8931 18.6238 18.4246C20.0923 16.9562 21.0923 15.0852 21.4975 13.0484C21.9026 11.0116 21.6947 8.90045 20.9 6.98182C20.1052 5.0632 18.7594 3.42332 17.0327 2.26957C15.306 1.11581 13.2759 0.5 11.1992 0.5C8.41445 0.5 5.74373 1.60625 3.7746 3.57538C1.80547 5.54451 0.699219 8.21523 0.699219 11ZM5.19922 10.25H14.3117L10.1267 6.04445L11.1992 5L17.1992 11L11.1992 17L10.1267 15.9296L14.3117 11.75H5.19922V10.25Z" fill="#14C0D9"/>
</svg>
