<svg width="22" height="22" viewBox="0 0 22 22" fill="none" xmlns="http://www.w3.org/2000/svg">
<path d="M0.699219 10.9961C0.699219 13.0728 1.31503 15.1029 2.46879 16.8296C3.62254 18.5563 5.26242 19.9021 7.18104 20.6968C9.09967 21.4915 11.2109 21.6995 13.2477 21.2943C15.2845 20.8892 17.1554 19.8892 18.6238 18.4207C20.0923 16.9523 21.0923 15.0813 21.4975 13.0445C21.9026 11.0077 21.6947 8.89654 20.9 6.97792C20.1052 5.05929 18.7594 3.41942 17.0327 2.26566C15.306 1.11191 13.2759 0.496094 11.1992 0.496094C8.41445 0.496094 5.74373 1.60234 3.7746 3.57147C1.80547 5.5406 0.699219 8.21132 0.699219 10.9961ZM5.19922 10.2461H14.3117L10.1267 6.04054L11.1992 4.99609L17.1992 10.9961L11.1992 16.9961L10.1267 15.9257L14.3117 11.7461H5.19922V10.2461Z" fill="url(#paint0_linear_5404_3964)"/>
<defs>
<linearGradient id="paint0_linear_5404_3964" x1="24.5342" y1="-2.33891" x2="-4.76078" y2="26.9561" gradientUnits="userSpaceOnUse">
<stop stop-color="#B709B8"/>
<stop offset="1" stop-color="#0092FD"/>
</linearGradient>
</defs>
</svg>
