<svg width="33" height="35" viewBox="0 0 33 35" fill="none" xmlns="http://www.w3.org/2000/svg">
<g clip-path="url(#clip0_3969_540158)">
<path d="M26.0672 6.37194L17.051 1.1332C16.7092 0.934766 16.2886 0.934766 15.9468 1.1332L6.92824 6.37314C6.92824 6.37314 6.56257 6.60645 6.56257 7.10555V17.5277C6.56257 17.5277 6.54823 18.1218 6.92824 18.3431L15.9432 23.5806V23.577C15.9432 23.577 16.4678 23.9222 17.0534 23.5818L26.0182 18.3732C26.4305 18.1338 26.4353 17.5578 26.4353 17.5578V7.0839C26.4353 6.59082 26.0684 6.37194 26.0684 6.37194H26.0672Z" fill="#14355A"/>
<path d="M16.9191 1.48564L25.8063 6.64861C25.9688 6.74241 26.068 6.9168 26.068 7.10561V17.4327C26.068 17.8392 25.6306 18.093 25.2817 17.8898L16.3945 12.7268C16.232 12.633 16.1328 12.4586 16.1328 12.2698V1.94265C16.1328 1.53615 16.5702 1.28239 16.9191 1.48564Z" fill="#14355A"/>
<path d="M17.6808 2.81377L25.042 7.09038C25.2045 7.18419 25.3037 7.35857 25.3037 7.54739V16.103C25.3037 16.5095 24.8663 16.7633 24.5174 16.56L17.1562 12.2834C16.9937 12.1896 16.8945 12.0152 16.8945 11.8264V3.27077C16.8945 2.86428 17.3319 2.61052 17.6808 2.81377Z" fill="#00B9E3"/>
<path d="M18.5037 4.48776L24.0939 7.73491C24.217 7.80706 24.2935 7.93936 24.2935 8.08247V14.578C24.2935 14.8871 23.9613 15.0795 23.696 14.9255L18.1058 11.6784C17.9827 11.6062 17.9062 11.4739 17.9062 11.3308V4.83532C17.9062 4.52624 18.2385 4.33382 18.5037 4.48776Z" fill="#89D4E3"/>
<path d="M12.5636 4.00908L21.4508 9.17204C21.6133 9.26585 21.7125 9.44023 21.7125 9.62905V19.9562C21.7125 20.3627 21.2751 20.6164 20.9262 20.4132L12.039 15.2502C11.8765 15.1564 11.7773 14.982 11.7773 14.7932V4.46608C11.7773 4.05959 12.2147 3.80583 12.5636 4.00908Z" fill="#14355A"/>
<path d="M13.3293 5.3372L20.6904 9.61382C20.8529 9.70762 20.9521 9.88201 20.9521 10.0708V18.6253C20.9521 19.0318 20.5147 19.2855 20.1658 19.0823L12.8047 14.8056C12.6422 14.7118 12.543 14.5375 12.543 14.3486V5.79421C12.543 5.38771 12.9803 5.13396 13.3293 5.3372Z" fill="#00B9E3"/>
<path d="M14.0194 6.99166L19.6095 10.2388C19.7326 10.311 19.8091 10.4433 19.8091 10.5864V17.0819C19.8091 17.391 19.4769 17.5834 19.2116 17.4294L13.6214 14.1823C13.4984 14.1101 13.4219 13.9778 13.4219 13.8347V7.33923C13.4219 7.03015 13.7541 6.83772 14.0194 6.99166Z" fill="#89D4E3"/>
<path d="M7.71599 6.82548L16.6031 11.9885C16.7657 12.0823 16.8648 12.2566 16.8648 12.4455V22.7726C16.8648 23.1791 16.4275 23.4328 16.0785 23.2296L7.19139 18.0666C7.02887 17.9728 6.92969 17.7984 6.92969 17.6096V7.28249C6.92969 6.87599 7.36705 6.62224 7.71599 6.82548Z" fill="#14355A"/>
<path d="M8.47771 8.15752L15.8389 12.4341C16.0014 12.5279 16.1006 12.7023 16.1006 12.8911V21.4456C16.1006 21.8521 15.6632 22.1058 15.3143 21.9026L7.95311 17.626C7.79059 17.5322 7.69141 17.3578 7.69141 17.169V8.61452C7.69141 8.20803 8.12877 7.95427 8.47771 8.15752Z" fill="#00B9E3"/>
<path d="M9.18343 9.81197L14.7736 13.0591C14.8967 13.1313 14.9732 13.2636 14.9732 13.4067V19.9022C14.9732 20.2113 14.641 20.4037 14.3757 20.2498L8.7855 17.0026C8.66242 16.9304 8.58594 16.7982 8.58594 16.655V10.1595C8.58594 9.85046 8.91814 9.65804 9.18343 9.81197Z" fill="#89D4E3"/>
<path d="M0.753906 33.2009V28.0921C0.753906 27.973 0.812461 27.9141 0.930765 27.9141H3.01722C3.45697 27.9141 3.79874 28.0343 4.04372 28.2749C4.28869 28.5154 4.41058 28.8569 4.41058 29.2995V31.9946C4.41058 32.4372 4.28869 32.7776 4.04372 33.0193C3.79874 33.2598 3.45697 33.3801 3.01722 33.3801H0.930765C0.812461 33.3801 0.753906 33.3212 0.753906 33.2021V33.2009ZM1.91902 32.4444H2.83916C3.01961 32.4444 3.14747 32.406 3.22395 32.3302C3.30043 32.2532 3.33748 32.1245 3.33748 31.9429V29.35C3.33748 29.1684 3.29924 29.0397 3.22395 28.9628C3.14747 28.8858 3.01961 28.8485 2.83916 28.8485H1.91902C1.85688 28.8485 1.82581 28.8798 1.82581 28.9423V32.3506C1.82581 32.4132 1.85688 32.4444 1.91902 32.4444Z" fill="#14355A"/>
<path d="M4.84766 28.8506V28.1747C4.84766 28.0712 4.89904 28.0195 5.00181 28.0195H5.67339C5.77616 28.0195 5.82755 28.0688 5.82755 28.1675V28.8518C5.82755 28.9552 5.77616 29.0069 5.67339 29.0069H5.00181C4.89904 29.0069 4.84766 28.9552 4.84766 28.8518V28.8506ZM4.84766 33.3208V29.6828C4.84766 29.5746 4.89904 29.5192 5.00181 29.5192H5.66622C5.77377 29.5192 5.82874 29.5734 5.82874 29.6828V33.3208C5.82874 33.3882 5.81679 33.4326 5.79409 33.4531C5.77138 33.4735 5.73075 33.4844 5.67459 33.4844H5.01018C4.90263 33.4844 4.84766 33.4302 4.84766 33.3208Z" fill="#14355A"/>
<path d="M6.20339 34.7748H5.68596C5.57841 34.7748 5.52344 34.7207 5.52344 34.6112V34.0821C5.52344 33.9738 5.57721 33.9185 5.68596 33.9185H5.90225C6.13408 33.9185 6.29182 33.8764 6.37786 33.7946C6.4627 33.7117 6.50572 33.5541 6.50572 33.3208V29.6828C6.50572 29.5746 6.55949 29.5192 6.66824 29.5192H7.32429C7.43184 29.5192 7.48681 29.5734 7.48681 29.6828V33.5C7.48681 33.9041 7.37328 34.218 7.14743 34.4405C6.92038 34.663 6.6061 34.7748 6.20458 34.7748H6.20339ZM6.50453 28.8506V28.1747C6.50453 28.0712 6.55591 28.0195 6.65868 28.0195H7.33026C7.43303 28.0195 7.48442 28.0688 7.48442 28.1675V28.8518C7.48442 28.9552 7.43303 29.0069 7.33026 29.0069H6.65868C6.55591 29.0069 6.50453 28.9552 6.50453 28.8518V28.8506Z" fill="#14355A"/>
<path d="M8.125 28.8506V28.1747C8.125 28.0712 8.17638 28.0195 8.27915 28.0195H8.95074C9.05351 28.0195 9.10489 28.0688 9.10489 28.1675V28.8518C9.10489 28.9552 9.05351 29.0069 8.95074 29.0069H8.27915C8.17638 29.0069 8.125 28.9552 8.125 28.8518V28.8506ZM8.125 33.3208V29.6828C8.125 29.5746 8.17638 29.5192 8.27915 29.5192H8.94357C9.05112 29.5192 9.10609 29.5734 9.10609 29.6828V33.3208C9.10609 33.3882 9.09414 33.4326 9.07143 33.4531C9.04873 33.4735 9.0081 33.4844 8.95193 33.4844H8.28752C8.17997 33.4844 8.125 33.4302 8.125 33.3208Z" fill="#14355A"/>
<path d="M9.92515 30.3737H9.61564C9.5535 30.3737 9.51168 30.3629 9.48778 30.3424C9.46508 30.322 9.45312 30.2799 9.45312 30.2186V29.6822C9.45312 29.5739 9.5069 29.5186 9.61564 29.5186H9.92515C9.98131 29.5186 10.01 29.4898 10.01 29.4332V28.6948C10.01 28.5866 10.0662 28.5312 10.1797 28.5312H10.8286C10.9361 28.5312 10.9911 28.5854 10.9911 28.6948V29.4332C10.9911 29.491 11.0221 29.5186 11.0843 29.5186H11.6866C11.7941 29.5186 11.8491 29.5727 11.8491 29.6822V30.2186C11.8491 30.2751 11.8371 30.316 11.8144 30.3388C11.7917 30.3617 11.7487 30.3737 11.6866 30.3737H11.0843C11.0221 30.3737 10.9911 30.4026 10.9911 30.4591V32.1777C10.9911 32.3388 11.0269 32.4531 11.0986 32.524C11.1703 32.5938 11.2886 32.6287 11.4535 32.6287H11.763C11.8706 32.6287 11.9256 32.6828 11.9256 32.7922V33.3286C11.9256 33.3863 11.9136 33.426 11.8909 33.4489C11.8682 33.4717 11.8252 33.4838 11.763 33.4838H11.2922C10.8847 33.4838 10.5704 33.3755 10.3458 33.1566C10.1223 32.939 10.01 32.6275 10.01 32.2234V30.4591C10.01 30.4026 9.98131 30.3737 9.92515 30.3737Z" fill="#14355A"/>
<path d="M13.6243 33.4847H13.4391C13.0316 33.4847 12.7185 33.3764 12.4963 33.1575C12.2752 32.9399 12.1641 32.626 12.1641 32.2171V30.7871C12.1641 30.3782 12.2752 30.0643 12.4963 29.8467C12.7173 29.629 13.0316 29.5195 13.4391 29.5195H15.2232C15.3368 29.5195 15.3929 29.5737 15.3929 29.6831V33.3211C15.3929 33.4293 15.3356 33.4847 15.2232 33.4847H14.5744C14.4668 33.4847 14.4118 33.4305 14.4118 33.3211V33.0649H14.3808C14.3246 33.2044 14.2242 33.3103 14.0796 33.38C13.935 33.4498 13.7833 33.4847 13.6243 33.4847ZM14.4118 32.0391V30.4612C14.4118 30.4047 14.3808 30.3758 14.3186 30.3758H13.5921C13.4272 30.3758 13.3113 30.4107 13.2443 30.4804C13.1774 30.5502 13.144 30.6681 13.144 30.834V32.1714C13.144 32.3373 13.1774 32.4552 13.2443 32.5249C13.3113 32.5947 13.4272 32.6296 13.5921 32.6296H13.8777C14.2326 32.6296 14.4106 32.4323 14.4106 32.0391H14.4118Z" fill="#14355A"/>
<path d="M16.7287 33.4856H16.0727C15.9651 33.4856 15.9102 33.4314 15.9102 33.322V28.1831C15.9102 28.0749 15.9639 28.0195 16.0727 28.0195H16.7287C16.8363 28.0195 16.8912 28.0737 16.8912 28.1831V33.322C16.8912 33.4302 16.8375 33.4856 16.7287 33.4856Z" fill="#14355A"/>
<path d="M17.7812 33.3004V28.1975C17.7812 28.0785 17.8398 28.0195 17.9581 28.0195H20.0422C20.4807 28.0195 20.8225 28.1398 21.0675 28.3803C21.3124 28.6209 21.4343 28.9624 21.4343 29.4038V32.0953C21.4343 32.5367 21.3124 32.8782 21.0675 33.1188C20.8225 33.3593 20.4807 33.4796 20.0422 33.4796H17.9581C17.8398 33.4796 17.7812 33.4206 17.7812 33.3016V33.3004ZM18.9452 32.5451H19.8653C20.0458 32.5451 20.1736 32.5066 20.2489 32.4308C20.3242 32.3551 20.3624 32.2252 20.3624 32.0448V29.4555C20.3624 29.2739 20.3242 29.1452 20.2489 29.0694C20.1724 28.9937 20.0446 28.9552 19.8653 28.9552H18.9452C18.883 28.9552 18.852 28.9865 18.852 29.049V32.4537C18.852 32.5162 18.883 32.5475 18.9452 32.5475V32.5451Z" fill="#14355A"/>
<path d="M24.7718 33.4769H23.0641C22.6566 33.4769 22.3435 33.3686 22.1213 33.1497C21.9002 32.9321 21.7891 32.6182 21.7891 32.2093V30.7793C21.7891 30.3704 21.9002 30.0565 22.1213 29.8388C22.3423 29.6212 22.6566 29.5117 23.0641 29.5117H23.6748C24.0811 29.5117 24.3953 29.62 24.6176 29.8388C24.8387 30.0565 24.9498 30.3704 24.9498 30.7793V31.7667C24.9498 31.8749 24.896 31.9302 24.7873 31.9302H22.8478C22.7857 31.9302 22.7546 31.9591 22.7546 32.0156V32.1864C22.7546 32.3476 22.7893 32.4618 22.8586 32.5328C22.9279 32.6025 23.045 32.6374 23.2099 32.6374H24.7706C24.8781 32.6374 24.9331 32.6951 24.9331 32.8082V33.3217C24.9331 33.3794 24.9211 33.4191 24.8984 33.442C24.8757 33.4648 24.8327 33.4769 24.7706 33.4769H24.7718ZM22.8478 31.2688H23.8982C23.9544 31.2688 23.9831 31.2399 23.9831 31.1834V30.8106C23.9831 30.6446 23.9496 30.528 23.8827 30.4606C23.8158 30.3933 23.6999 30.3596 23.5349 30.3596H23.2111C23.0462 30.3596 22.9303 30.3933 22.8634 30.4606C22.7964 30.528 22.763 30.6446 22.763 30.8106V31.1834C22.763 31.2411 22.7917 31.2688 22.8478 31.2688Z" fill="#14355A"/>
<path d="M26.1701 34.534H25.5141C25.4053 34.534 25.3516 34.4823 25.3516 34.3788V29.6753C25.3516 29.567 25.4053 29.5117 25.5141 29.5117H26.1701C26.2777 29.5117 26.3326 29.5658 26.3326 29.6753V29.9314H26.3637C26.4199 29.7919 26.5203 29.6861 26.6649 29.6164C26.8095 29.5466 26.9612 29.5117 27.1201 29.5117H27.4368C27.8336 29.5117 28.1335 29.62 28.3366 29.8388C28.5398 30.0565 28.6414 30.3704 28.6414 30.7793V32.2093C28.6414 32.6194 28.5398 32.9321 28.3366 33.1497C28.1335 33.3674 27.8336 33.4769 27.4368 33.4769H27.1201C26.96 33.4769 26.8083 33.442 26.6649 33.3722C26.5203 33.3025 26.4199 33.1966 26.3637 33.0571H26.3326V34.3788C26.3326 34.4823 26.2789 34.534 26.1701 34.534ZM26.8656 32.6218H27.205C27.3699 32.6218 27.487 32.5869 27.5563 32.5171C27.6256 32.4474 27.6603 32.3295 27.6603 32.1636V30.8262C27.6603 30.6602 27.6256 30.5424 27.5563 30.4726C27.487 30.4029 27.3699 30.368 27.205 30.368H26.8656C26.5107 30.368 26.3326 30.5652 26.3326 30.9585V32.0313C26.3326 32.4257 26.5107 32.6218 26.8656 32.6218Z" fill="#14355A"/>
<path d="M30.9661 33.4769H30.279C29.8715 33.4769 29.5584 33.3686 29.3361 33.1497C29.115 32.9321 29.0039 32.6182 29.0039 32.2093V30.7793C29.0039 30.3704 29.115 30.0565 29.3361 29.8388C29.5572 29.6212 29.8715 29.5117 30.279 29.5117H30.9661C31.3676 29.5117 31.6807 29.6224 31.9041 29.8424C32.1276 30.0625 32.2399 30.3752 32.2399 30.7793V32.2093C32.2399 32.6133 32.1276 32.926 31.9041 33.1461C31.6807 33.3662 31.3676 33.4769 30.9661 33.4769ZM30.4247 32.629H30.8191C30.984 32.629 31.1011 32.5953 31.1704 32.528C31.2397 32.4606 31.2744 32.344 31.2744 32.178V30.8094C31.2744 30.6434 31.2397 30.5268 31.1704 30.4594C31.1011 30.3921 30.984 30.3584 30.8191 30.3584H30.4247C30.2598 30.3584 30.1439 30.3921 30.077 30.4594C30.0101 30.5268 29.9766 30.6434 29.9766 30.8094V32.178C29.9766 32.344 30.0101 32.4606 30.077 32.528C30.1439 32.5953 30.2598 32.629 30.4247 32.629Z" fill="#14355A"/>
</g>
<defs>
<clipPath id="clip0_3969_540158">
<rect width="31.488" height="33.792" fill="white" transform="translate(0.753906 0.984375)"/>
</clipPath>
</defs>
</svg>
