<svg width="44" height="14" viewBox="0 0 44 14" fill="none" xmlns="http://www.w3.org/2000/svg">
<g clip-path="url(#clip0_3969_540185)">
<path d="M20.1231 11.3411H18.4235C17.6001 11.3411 17.1634 10.7375 17.1634 9.81499V5.13672H14.7031V9.95412C14.7031 12.1953 15.7825 13.5183 17.6181 13.6007L17.6225 13.6051H22.5994V5.13672H20.1231V11.3411Z" fill="url(#paint0_linear_3969_540185)"/>
<path d="M29.2911 11.3411H27.5914C26.7681 11.3411 26.3314 10.7375 26.3314 9.81499L26.3299 5.13672H23.8711V9.95412C23.8711 12.1958 24.9504 13.5183 26.7861 13.6007L26.7904 13.6051H31.7674V5.13672H29.2911V11.3411Z" fill="url(#paint1_linear_3969_540185)"/>
<path d="M39.1022 0.738281V3.29751V5.49896C38.4581 5.13585 37.7144 4.92788 36.9221 4.92788H36.9173C34.4662 4.9303 32.4805 6.91408 32.4805 9.36132C32.4805 11.8095 34.4691 13.7948 36.9226 13.7948H36.9275C39.3786 13.7923 41.3643 11.8086 41.3643 9.36181V3.29751H43.6259V0.738281H39.1022ZM36.9246 11.5371H36.9221C36.3397 11.5371 35.7923 11.3107 35.3804 10.8996C34.9685 10.4885 34.7416 9.9421 34.7416 9.36084C34.7416 8.16242 35.7185 7.18653 36.9192 7.18508H36.9216C37.5041 7.18508 38.0515 7.41148 38.4634 7.82258C38.8753 8.23369 39.1022 8.78005 39.1022 9.36132C39.1022 10.5597 38.1253 11.5356 36.9246 11.5371Z" fill="url(#paint2_linear_3969_540185)"/>
<path d="M9.98481 4.93017C8.96328 4.93017 8.11469 5.27583 7.4395 5.9497C6.85077 5.27583 6.07164 4.93017 5.0846 4.93017C4.27097 4.93017 3.5953 5.18954 3.04155 5.72524V5.13766H0.617188V12.4765C0.617188 13.0999 1.12382 13.6056 1.74898 13.6056H3.07652V9.26763C3.07652 7.95432 3.57878 7.21113 4.54833 7.21113C5.39693 7.21113 5.84722 7.83312 5.84722 8.7838V12.4765C5.84722 13.0999 6.35385 13.6056 6.97901 13.6056H8.30656V9.09504C8.30656 7.9199 8.86079 7.21113 9.77837 7.21113C10.627 7.21113 11.0773 7.83312 11.0773 8.7838V12.4765C11.0773 13.0999 11.5839 13.6056 12.2086 13.6056H13.5361V8.68006C13.5361 6.2779 12.2547 4.92969 9.98627 4.92969L9.98481 4.93017Z" fill="url(#paint3_linear_3969_540185)"/>
</g>
<defs>
<linearGradient id="paint0_linear_3969_540185" x1="0.349615" y1="9.39051" x2="46.9545" y2="9.34161" gradientUnits="userSpaceOnUse">
<stop stop-color="#0096FF"/>
<stop offset="0.5" stop-color="#7341FF"/>
<stop offset="1" stop-color="#C300AB"/>
</linearGradient>
<linearGradient id="paint1_linear_3969_540185" x1="0.346701" y1="9.40021" x2="46.9516" y2="9.35131" gradientUnits="userSpaceOnUse">
<stop stop-color="#0096FF"/>
<stop offset="0.5" stop-color="#7341FF"/>
<stop offset="1" stop-color="#C300AB"/>
</linearGradient>
<linearGradient id="paint2_linear_3969_540185" x1="0.346446" y1="7.30697" x2="46.9514" y2="7.25807" gradientUnits="userSpaceOnUse">
<stop stop-color="#0096FF"/>
<stop offset="0.5" stop-color="#7341FF"/>
<stop offset="1" stop-color="#C300AB"/>
</linearGradient>
<linearGradient id="paint3_linear_3969_540185" x1="0.455127" y1="9.27742" x2="47.06" y2="9.22852" gradientUnits="userSpaceOnUse">
<stop stop-color="#0096FF"/>
<stop offset="0.5" stop-color="#7341FF"/>
<stop offset="1" stop-color="#C300AB"/>
</linearGradient>
<clipPath id="clip0_3969_540185">
<rect width="43.008" height="13.056" fill="white" transform="translate(0.617188 0.738281)"/>
</clipPath>
</defs>
</svg>
