<svg width="47" height="15" viewBox="0 0 47 15" fill="none" xmlns="http://www.w3.org/2000/svg">
<g clip-path="url(#clip0_3969_540197)">
<path d="M19.2924 13.9134H16.6047L15.4939 8.73073L14.3947 13.9134H11.7069L9.44922 5.51562H11.8146L12.6392 8.92303C12.8661 9.85855 13.1053 11.4422 13.1053 11.4422H13.1292L14.3715 5.51562H16.6292L17.8716 11.4422H17.8954C17.8954 11.4422 18.1346 9.85855 18.3616 8.92303L19.1977 5.51562H21.5509L19.2931 13.9134H19.2924Z" fill="#0082CA"/>
<path d="M24.6431 13.9151H22.6123V9.11637H21.8477V7.67648H24.6431V13.9151ZM24.5954 6.04498C24.5954 6.68074 24.2015 6.96886 23.5084 6.96886C22.8631 6.96886 22.4569 6.68074 22.4569 6.04498C22.4569 5.40921 22.8631 5.12109 23.5084 5.12109C24.2015 5.12109 24.5954 5.40921 24.5954 6.04498Z" fill="#0082CA"/>
<path d="M32.335 7.21899H28.4049V9.10234H31.7857V10.8057H28.4049V13.9127H26.2188V5.51562H32.335V7.21899Z" fill="#0082CA"/>
<path d="M35.6587 13.9151H33.6279V9.11637H32.8633V7.67648H35.6587V13.9151ZM35.611 6.04498C35.611 6.68074 35.2164 6.96886 34.524 6.96886C33.8787 6.96886 33.4725 6.68074 33.4725 6.04498C33.4725 5.40921 33.8787 5.12109 34.524 5.12109C35.2171 5.12109 35.611 5.40921 35.611 6.04498Z" fill="#0082CA"/>
<path d="M22.7644 2.72481C22.7603 2.46954 22.6165 2.24918 22.3207 2.24918C22.0079 2.24918 21.7967 2.40658 21.7374 2.72481H22.7651H22.7644ZM22.2867 1.78587C22.9293 1.78587 23.3143 2.21496 23.3143 2.88153C23.3143 3.00471 23.3014 3.10668 23.3014 3.10668H21.7456C21.7708 3.45502 22.0754 3.61173 22.3841 3.61173C22.5872 3.61173 22.8537 3.5563 23.0145 3.47144L23.2087 3.88753C22.9716 4.01482 22.6376 4.07915 22.3712 4.07915C21.6229 4.07915 21.1452 3.61584 21.1452 2.94107C21.1452 2.26629 21.61 1.78587 22.2867 1.78587ZM24.3209 0.970803V3.43791C24.3209 3.56109 24.3924 3.61584 24.5192 3.61584C24.5492 3.61584 24.6125 3.60763 24.6548 3.59873V4.03604C24.541 4.05725 24.3972 4.07847 24.2657 4.07847C23.9992 4.07847 23.7498 3.9765 23.7498 3.47486V1.29108L24.3209 0.970803ZM26.5282 2.72412C26.5241 2.46886 26.3803 2.2485 26.0839 2.2485C25.7711 2.2485 25.5598 2.4059 25.5005 2.72412H26.5282ZM26.0505 1.78519C26.6931 1.78519 27.0781 2.21428 27.0781 2.88084C27.0781 3.00403 27.0652 3.10599 27.0652 3.10599H25.5087C25.5339 3.45433 25.8385 3.61105 26.1472 3.61105C26.3503 3.61105 26.6168 3.55562 26.7776 3.47076L26.9718 3.88685C26.7353 4.01414 26.4014 4.07847 26.135 4.07847C25.3867 4.07847 24.9083 3.61516 24.9083 2.94038C24.9083 2.26561 25.3738 1.78519 26.0505 1.78519ZM16.5473 0.96875V2.80077L17.2812 1.8283H17.962L17.0911 2.86442L17.9239 4.03604H17.2853L16.7613 3.2675L16.55 3.50566V4.03672H15.9789V1.29108L16.5473 0.96875ZM28.0615 0.96875V2.80077L28.7961 1.8283H29.4769L28.606 2.86442L29.4388 4.03604H28.8002L28.2755 3.2675L28.0642 3.50566V4.03672H27.4938V1.29108L28.0622 0.96875H28.0615ZM32.8584 1.8283L32.9518 2.12121C33.0444 1.93027 33.3109 1.78587 33.5603 1.78587C33.8097 1.78587 34.0639 1.93848 34.1655 2.18075C34.2752 1.96449 34.5123 1.78587 34.8756 1.78587C35.3281 1.78587 35.662 2.06646 35.662 2.7077V4.03672H35.0909V2.66938C35.0909 2.44422 35.0023 2.2485 34.7359 2.2485C34.4531 2.2485 34.3297 2.47365 34.3297 2.76245V4.03604H33.7586V2.63926C33.7586 2.44354 33.6659 2.2485 33.4077 2.2485C33.1242 2.2485 32.9974 2.47365 32.9974 2.75834V4.03672H32.4263V1.8283H32.8577H32.8584ZM30.7724 1.67637C30.0834 1.67637 29.5253 2.23755 29.5253 2.92943C29.5253 3.62132 30.0834 4.18249 30.7724 4.18249C31.4614 4.18249 32.0202 3.62132 32.0202 2.92943C32.0202 2.23755 31.4614 1.67637 30.7724 1.67637ZM30.7724 3.64116C30.3812 3.64116 30.0637 3.32294 30.0637 2.92943C30.0637 2.53593 30.3812 2.2177 30.7724 2.2177C31.1636 2.2177 31.4811 2.53593 31.4811 2.92943C31.4811 3.32294 31.1643 3.64116 30.7724 3.64116ZM21.4014 1.06388V1.56072H20.6559V4.03672H20.0637V1.56072H19.3182V1.06388H21.4014ZM14.8068 1.8283L14.8048 2.15337C14.9404 1.87278 15.1482 1.80709 15.5367 1.80709V2.36757H15.4651C15.093 2.36757 14.8266 2.5544 14.8266 3.03003V4.03604H14.2555V1.8283H14.8068ZM11.5364 1.06388V1.56072H10.7909V4.03672H10.1987V1.56072H9.45312V1.06388H11.5364ZM11.5364 1.06388V1.56072H10.7909V4.03672H10.1987V1.56072H9.45312V1.06388H11.5364ZM11.5364 1.06388V1.56072H10.7909V4.03672H10.1987V1.56072H9.45312V1.06388H11.5364ZM11.5364 1.06388V1.56072H10.7909V4.03672H10.1987V1.56072H9.45312V1.06388H11.5364ZM13.1862 4.03398L13.1017 3.76708C13.0827 3.80609 12.9286 4.07231 12.5164 4.07231C12.147 4.07231 11.7095 3.87111 11.7095 3.23329V2.11368H12.2826V3.23739C12.2826 3.52345 12.4366 3.65143 12.637 3.65143C12.8987 3.65143 13.0588 3.4427 13.0588 3.16417V2.11368H13.6224V4.03398H13.1862ZM11.9167 1.3253H12.4877V1.77492H11.9167V1.3253ZM12.8455 1.3253H13.4166V1.77492H12.8455V1.3253Z" fill="#002855"/>
<path d="M1.43631 14.7915L2.90897 13.9114C2.19956 12.7172 1.79204 11.3225 1.79204 9.83131C1.79204 8.3401 2.20024 6.94469 2.90897 5.75118L1.43631 4.87109C0.574239 6.32124 0.078125 8.01776 0.078125 9.83062C0.078125 11.6435 0.574239 13.34 1.43631 14.7915Z" fill="#0082CA"/>
<path d="M4.24907 13.1097L5.76603 12.2029C5.35374 11.5089 5.1159 10.6973 5.1159 9.83022C5.1159 8.96314 5.35374 8.15218 5.76603 7.45755L4.24907 6.55078C3.67935 7.51025 3.35156 8.63122 3.35156 9.82953C3.35156 11.0278 3.67935 12.1488 4.24907 13.1083V13.1097Z" fill="#0082CA"/>
<path d="M7.1737 11.3601L9.73604 9.82846L7.1737 8.29688C6.90724 8.74513 6.75391 9.26866 6.75391 9.82846C6.75391 10.3883 6.90724 10.9118 7.1737 11.3601Z" fill="#0082CA"/>
<path d="M44.8008 4.86856L43.3281 5.74864C44.0375 6.94284 44.4451 8.33756 44.4451 9.82877C44.4451 11.32 44.0369 12.7154 43.3281 13.9089L44.8008 14.789C45.6629 13.3375 46.159 11.6409 46.159 9.82809C46.159 8.01523 45.6629 6.31871 44.8008 4.86719V4.86856Z" fill="#0082CA"/>
<path d="M41.9857 6.55078L40.4688 7.45755C40.881 8.15149 41.1189 8.96314 41.1189 9.83022C41.1189 10.6973 40.881 11.5083 40.4688 12.2029L41.9857 13.1097C42.5554 12.1502 42.8832 11.0292 42.8832 9.8309C42.8832 8.63259 42.5554 7.51162 41.9857 6.55215V6.55078Z" fill="#0082CA"/>
<path d="M39.0623 8.29688L36.5 9.82846L39.0623 11.3601C39.3288 10.9118 39.4821 10.3883 39.4821 9.82846C39.4821 9.26866 39.3288 8.74513 39.0623 8.29688Z" fill="#0082CA"/>
</g>
<defs>
<clipPath id="clip0_3969_540197">
<rect width="46.08" height="13.824" fill="white" transform="translate(0.078125 0.96875)"/>
</clipPath>
</defs>
</svg>
